<svg width="295" height="84" viewBox="0 0 295 84" fill="none" xmlns="http://www.w3.org/2000/svg">
<g filter="url(#filter0_di_101_67)">
<rect x="6" y="4" width="277" height="66" rx="33" fill="#E63238"/>
</g>
<path d="M89.5448 45.8261V30.3701H96.4568C98.0408 30.3701 99.3928 30.6341 100.513 31.1621C101.633 31.6741 102.489 32.5061 103.081 33.6581C103.673 34.7941 103.969 36.3061 103.969 38.1941C103.969 40.8501 103.321 42.7861 102.025 44.0021C100.729 45.2181 98.8728 45.8261 96.4568 45.8261H89.5448ZM94.0568 42.3701H95.8808C96.6328 42.3701 97.2648 42.2661 97.7768 42.0581C98.2888 41.8341 98.6808 41.4261 98.9528 40.8341C99.2248 40.2261 99.3608 39.3461 99.3608 38.1941C99.3608 37.0421 99.2328 36.1541 98.9768 35.5301C98.7368 34.8901 98.3608 34.4501 97.8488 34.2101C97.3368 33.9541 96.6808 33.8261 95.8808 33.8261H94.0568V42.3701ZM105.646 45.8261V30.3701H117.358V33.8261H110.158V36.3461H116.47V39.8501H110.158V42.3701H117.358V45.8261H105.646ZM118.795 45.8261V30.3701H123.307V42.3701H130.267V45.8261H118.795ZM131.475 45.8261V30.3701H135.987V45.8261H131.475ZM143.251 45.8261L137.323 30.3701H142.027L145.627 40.5941L149.227 30.3701H153.955L148.027 45.8261H143.251ZM155.287 45.8261V30.3701H166.999V33.8261H159.799V36.3461H166.111V39.8501H159.799V42.3701H166.999V45.8261H155.287ZM168.435 45.8261V30.3701H176.475C177.739 30.3701 178.771 30.6021 179.571 31.0661C180.387 31.5301 180.995 32.1781 181.395 33.0101C181.795 33.8261 181.995 34.7781 181.995 35.8661C181.995 36.9061 181.731 37.8261 181.203 38.6261C180.691 39.4101 180.003 40.0101 179.139 40.4261C179.315 40.5701 179.467 40.7461 179.595 40.9541C179.723 41.1461 179.867 41.4181 180.027 41.7701L181.803 45.8261H177.099L175.467 42.1061C175.339 41.8181 175.179 41.6181 174.987 41.5061C174.811 41.3781 174.555 41.3141 174.219 41.3141H172.947V45.8261H168.435ZM172.947 37.8581H175.323C175.979 37.8581 176.483 37.6901 176.835 37.3541C177.203 37.0021 177.387 36.5061 177.387 35.8661C177.387 34.5061 176.747 33.8261 175.467 33.8261H172.947V37.8581ZM187.188 45.8261V40.1621L181.62 30.3701H186.324L189.444 36.2021L192.564 30.3701H197.268L191.7 40.1621V45.8261H187.188ZM203.873 45.8261V30.3701H207.713L213.545 38.5541V30.3701H218.057V45.8261H214.193L208.385 37.6661V45.8261H203.873ZM227.625 46.0661C225.065 46.0661 223.105 45.4421 221.745 44.1941C220.401 42.9461 219.729 40.9301 219.729 38.1461C219.729 36.2261 220.033 34.6821 220.641 33.5141C221.249 32.3301 222.137 31.4741 223.305 30.9461C224.489 30.4021 225.929 30.1301 227.625 30.1301C229.321 30.1301 230.753 30.4021 231.921 30.9461C233.105 31.4741 234.001 32.3301 234.609 33.5141C235.217 34.6821 235.521 36.2261 235.521 38.1461C235.521 40.9301 234.841 42.9461 233.481 44.1941C232.121 45.4421 230.169 46.0661 227.625 46.0661ZM227.625 42.2261C228.777 42.2261 229.609 41.9061 230.121 41.2661C230.649 40.6101 230.913 39.5701 230.913 38.1461C230.913 36.6261 230.649 35.5541 230.121 34.9301C229.609 34.2901 228.777 33.9701 227.625 33.9701C226.473 33.9701 225.633 34.2901 225.105 34.9301C224.593 35.5541 224.337 36.6261 224.337 38.1461C224.337 39.5701 224.593 40.6101 225.105 41.2661C225.633 41.9061 226.473 42.2261 227.625 42.2261ZM239.36 45.8261L235.76 30.3701H240.176L241.928 38.5541L243.632 32.6981V30.3701H247.328L249.68 38.5781L251.528 30.3701H255.944L252.368 45.8261H248.288L245.96 37.8341L243.44 45.8261H239.36Z" fill="white"/>
<ellipse cx="43" cy="37.4783" rx="32" ry="30.6087" fill="#F3F3F3"/>
<g filter="url(#filter1_d_101_67)">
<path d="M17.1106 30.4957L17.376 39.3269L27.8879 39.6347L28.04 31.1874L17.1106 30.4957Z" fill="#E21C23"/>
<path d="M28.053 29.8995L17.1054 29.149C17.057 29.1456 17.0084 29.1521 16.9628 29.168C16.9171 29.1838 16.8754 29.2087 16.8404 29.2411C16.8054 29.2734 16.7778 29.3125 16.7595 29.3557C16.7411 29.399 16.7324 29.4454 16.7339 29.4921L16.7551 30.1699C16.7577 30.2529 16.7922 30.3321 16.8521 30.392C16.912 30.4518 16.9929 30.488 17.079 30.4936L27.9961 31.1843C28.0429 31.1872 28.0899 31.181 28.1342 31.166C28.1785 31.151 28.2192 31.1275 28.2538 31.0969C28.2884 31.0663 28.3162 31.0293 28.3354 30.9881C28.3547 30.9468 28.3651 30.9023 28.366 30.8571L28.3779 30.2386C28.3794 30.1527 28.3465 30.0696 28.286 30.0064C28.2255 29.9433 28.1421 29.905 28.053 29.8995V29.8995Z" fill="#FF5D5B"/>
<path d="M16.9502 39.2152C16.7991 39.2122 16.6439 39.2082 16.4933 39.2132C16.2506 39.2186 16.2982 39.8082 16.5409 39.8202C20.7949 40.0293 24.8016 40.1324 28.9682 39.9975C29.1752 39.9905 29.7485 39.9088 29.6067 39.5692C29.5146 39.3496 29.0562 39.4482 28.8642 39.4477C27.9122 39.4477 26.9581 39.4109 26.0061 39.3919L20.2336 39.2794L16.9502 39.2152Z" fill="#FFB43F"/>
<path d="M23.1719 48.0188C24.4291 45.7296 25.8615 43.5336 27.4574 41.449C27.8714 40.9067 28.3096 40.3619 28.8886 39.9834C29.9016 39.3206 31.2029 39.2534 32.4275 39.2773C35.4388 39.3355 38.4236 39.8086 41.3836 40.3439C40.4523 41.8523 40.8326 43.7651 41.1332 45.497C41.2812 46.3476 41.4307 47.2046 41.7474 48.0114C42.2298 49.2337 43.0756 50.2923 44.1791 51.055C38.0739 51.2293 32.0079 51.0615 26.0155 49.9375C25.4551 49.8325 24.887 49.7164 24.3862 49.453C23.8853 49.1896 23.2862 48.5571 23.1719 48.0188Z" fill="#FF5D5B"/>
<path d="M28.0954 46.4245C28.7784 46.5888 29.5079 46.2616 29.9912 45.7681C30.4744 45.2746 30.759 44.6367 31.0347 44.0132C31.4611 43.0482 31.8872 42.0834 32.3132 41.119L33.1804 39.1584C33.2735 38.9478 33.3687 38.7172 33.3087 38.4951C33.0469 37.528 31.9681 38.1933 31.6194 38.6171C31.0146 39.3521 30.6032 40.244 30.268 41.1165C30.0745 41.618 28.6475 46.5579 28.0954 46.4245Z" fill="#FF867A"/>
<path d="M30.9287 48.2321C31.6013 48.4711 32.351 48.1086 32.8684 47.5274C33.3858 46.9463 33.7169 46.1769 34.0372 45.4245C34.5322 44.2608 35.0271 43.0972 35.5221 41.9336L36.5295 39.5662C36.6376 39.3117 36.7494 39.0334 36.7054 38.757C36.5119 37.5524 35.3886 38.3118 35.0115 38.8157C34.3544 39.6867 33.8799 40.7619 33.482 41.8171C33.2523 42.4256 31.4725 48.4258 30.9287 48.2321Z" fill="#FF867A"/>
<path d="M29.7603 39.8809C29.4204 39.855 29.1038 39.8874 28.8973 39.6499C28.6909 39.4123 28.6174 39.0926 28.5977 38.7834C28.5626 38.2391 28.6795 37.6774 28.9879 37.2197C29.4861 36.4807 30.4195 36.1033 31.3311 36.0246C32.2428 35.9459 33.155 36.1172 34.0594 36.2541C34.9638 36.3911 35.8992 36.4917 36.7855 36.2716C37.5207 36.0888 38.5271 36.1939 39.2809 36.2795C40.0348 36.3652 40.7912 36.6361 41.3138 37.166C41.7846 37.643 42.0298 38.2929 42.1214 38.9447C42.213 39.5966 42.1628 40.2579 42.1126 40.9143C42.0671 41.5054 41.9745 42.1796 41.4643 42.5118C40.978 42.829 40.4032 42.5466 39.9292 42.213C39.4553 41.8793 39.0186 41.5283 38.6425 41.094C38.2663 40.6598 37.7919 40.2504 37.2098 40.1752C34.7228 40.2209 32.2351 40.1226 29.7603 39.8809V39.8809Z" fill="#333333"/>
<path d="M33.801 54.8402C35.7386 52.5955 35.6115 49.4181 33.5171 47.7434C31.4227 46.0686 28.1541 46.5307 26.2165 48.7754C24.2789 51.0201 24.406 54.1974 26.5004 55.8721C28.5948 57.5469 31.8634 57.0849 33.801 54.8402Z" fill="#315A76"/>
<path d="M32.2629 53.6101C33.4146 52.2759 33.339 50.3873 32.0941 49.3919C30.8492 48.3964 28.9064 48.671 27.7547 50.0052C26.603 51.3394 26.6786 53.228 27.9235 54.2235C29.1684 55.2189 31.1112 54.9443 32.2629 53.6101Z" fill="#D2DBEC"/>
<path d="M62.4531 54.7921C64.345 52.5306 64.1507 49.3582 62.0192 47.7063C59.8876 46.0545 56.626 46.5487 54.7341 48.8102C52.8422 51.0717 53.0365 54.2441 55.168 55.896C57.2996 57.5478 60.5612 57.0536 62.4531 54.7921Z" fill="#315A76"/>
<path d="M60.8883 53.5796C62.0129 52.2354 61.8973 50.3497 60.6302 49.3677C59.3631 48.3858 57.4243 48.6795 56.2998 50.0237C55.1753 51.3679 55.2908 53.2537 56.5579 54.2356C57.825 55.2175 59.7638 54.9239 60.8883 53.5796Z" fill="#D2DBEC"/>
<path d="M59.3807 51.3178C59.4904 51.5817 59.5845 51.8859 59.4542 52.1409C59.27 52.4995 58.7334 52.5463 58.3568 52.377C57.8947 52.1693 57.5859 51.7445 57.2992 51.3382L56.3441 49.9842C56.1806 49.7526 56.0135 49.5126 55.9586 49.2372C55.747 48.185 57.1838 48.3179 57.7369 48.7825C58.4794 49.4055 59.0227 50.4567 59.3807 51.3178Z" fill="#E11C23"/>
<path d="M56.0927 50.108L59.7724 47.9592C60.1216 47.7551 60.4967 47.52 60.6199 47.145C60.7399 46.7795 60.5723 46.3682 60.2851 46.1033C59.998 45.8383 59.6094 45.6984 59.2213 45.6113C57.544 45.2328 55.6927 45.7701 54.4613 46.9279C53.4555 47.8741 52.8057 49.2684 52.7798 50.6264C52.7462 52.4739 55.359 50.5368 56.0927 50.108Z" fill="#E11C23"/>
<path d="M36.1688 52.568L50.675 52.319C52.4476 50.455 53.9418 48.496 55.7134 46.628C55.7899 46.2819 56.209 46.1345 56.3342 45.7989C56.7482 44.6829 56.7181 43.316 56.163 41.8459C55.375 39.7604 54.9523 37.7157 54.0256 35.671C53.753 35.0684 53.4115 34.4808 52.9101 34.0346C52.4088 33.5884 51.7263 33.2981 51.0475 33.3728C50.7112 33.676 50.4784 34.173 50.5063 34.6177C50.5342 35.0624 50.6889 35.4842 50.8292 35.9065C52.1337 39.8772 52.1642 44.1343 50.9166 48.122C50.6496 48.9685 49.8585 49.709 48.9438 49.7922C44.6623 50.1811 40.0192 49.1374 35.6167 49.237C35.4703 50.0387 35.6752 51.9066 36.1688 52.568Z" fill="#FF5D5B"/>
<path d="M53.3857 31.8151C53.3857 32.5581 53.0892 33.3265 52.622 33.9181C52.4237 33.9411 52.2239 33.9488 52.0244 33.941C51.2403 33.9137 50.4817 33.6661 49.842 33.2289C49.3924 32.9176 48.9893 32.463 48.9759 31.9301C48.9624 31.3823 49.3619 30.9033 49.813 30.5701C50.5313 30.0464 51.4079 29.7634 52.309 29.7644C52.4052 29.7644 52.5009 29.7684 52.5966 29.7759C53.0685 30.3655 53.3846 31.0736 53.3857 31.8151Z" fill="#F04646"/>
<path d="M29.7386 44.4839C28.1207 44.3962 26.5334 45.0421 25.2337 45.9733C23.934 46.9045 22.879 48.1107 21.8365 49.3048C21.5488 49.6345 21.2575 49.9696 21.0733 50.363C20.8891 50.7564 20.8229 51.219 20.9962 51.6159C21.1825 52.0417 21.6171 52.3285 22.0791 52.4625C22.5412 52.5965 23.0275 52.593 23.5076 52.5905L36.2557 52.5252C36.2801 50.7265 36.0576 48.392 34.9167 46.9658C33.7759 45.5396 31.6049 44.5864 29.7386 44.4839Z" fill="#E11C23"/>
<path d="M53.3857 31.8151C53.3857 32.5581 53.0892 33.3265 52.622 33.9181C52.4237 33.9411 52.2239 33.9488 52.0244 33.941C52.0244 33.927 52.0244 33.9116 52.0244 33.8976C52.0497 33.6746 52.1667 33.4724 52.2655 33.2687C52.425 32.9366 52.5394 32.5861 52.6059 32.2259C52.7221 31.5984 52.6962 30.9541 52.5299 30.3371C52.4916 30.1962 52.3586 29.9616 52.3064 29.7644C52.4026 29.7644 52.4983 29.7684 52.594 29.7759C53.0685 30.3655 53.3846 31.0736 53.3857 31.8151Z" fill="#D2DBEC"/>
<path d="M44.518 29.3811L46.7563 29.9657L47.6436 30.1978C47.7466 30.2187 47.8452 30.2564 47.9349 30.3093C47.9797 30.336 48.0168 30.3732 48.0428 30.4173C48.0689 30.4614 48.083 30.5111 48.0839 30.5618C48.0746 30.7261 47.893 30.8247 47.7305 30.8755C47.225 31.0319 46.6828 31.0249 46.153 31.004C44.8867 30.9516 43.6256 30.8144 42.3791 30.5932C42.1546 30.5533 41.7846 30.3905 41.6367 30.2222C41.468 30.0299 41.6051 29.8467 41.7189 29.6201C41.8326 29.4152 41.9841 29.232 42.166 29.0793C42.3243 28.9414 42.4826 28.9618 42.6859 28.9872C43.3073 29.0644 43.9142 29.2237 44.518 29.3811Z" fill="#CE4C68"/>
<path d="M40.2086 23.472C39.9007 23.6109 39.7429 23.9396 39.7429 24.2498C39.7429 24.5601 39.8609 24.8594 39.9804 25.1507L41.9859 30.0309C42.094 30.259 42.2896 30.4945 42.555 30.5418C42.8204 30.5891 43.031 30.4935 43.1862 30.2943C43.3414 30.0951 43.3885 29.8362 43.3673 29.5917C43.3461 29.3472 43.2638 29.1106 43.1805 28.8766L41.6444 24.5247C41.5507 24.2603 41.4529 23.9879 41.2563 23.7738C41.0597 23.5596 40.4844 23.348 40.2086 23.472Z" fill="#CE4C68"/>
<path d="M43.4615 46.379C43.4553 46.8285 43.4324 47.2767 43.3927 47.7235C44.019 47.8664 44.6684 47.8893 45.3039 47.7908C45.2605 47.3525 45.2444 46.8944 45.2455 46.4527C44.6722 46.4577 44.0327 46.4288 43.4615 46.379Z" fill="#EEC0C0"/>
<path d="M45.7376 35.4682C46.2549 35.7087 46.7372 35.9741 46.9074 36.4836C47.0776 36.993 47.0072 37.5472 46.8882 38.0701C46.6813 38.9884 46.3284 39.8703 46.0733 40.7771C45.5446 42.653 45.4225 44.636 45.3112 46.5781C44.6815 46.7967 43.9365 46.8012 43.3394 46.5099C43.3855 44.9029 43.0766 43.3049 43.058 41.6969C43.0393 40.0889 43.3581 38.3868 44.4653 37.1832C44.9087 36.7002 45.3536 35.995 45.7376 35.4682Z" fill="#333333"/>
<path d="M48.8776 49.7483C48.9128 49.4829 48.7187 49.2324 48.4823 49.0924C48.2458 48.9525 47.968 48.8933 47.7062 48.8081C46.8484 48.5247 46.1271 47.9316 45.4917 47.3092C45.3329 47.2878 45.2036 47.4202 45.0815 47.5203C44.8368 47.72 44.5222 47.8224 44.2019 47.8067C43.8852 47.7902 43.6421 47.5701 43.3606 47.4312C43.2799 47.6802 43.1454 47.9526 43.0646 48.2011C42.9808 48.4595 42.896 48.7214 42.8841 48.9914C42.8722 49.2613 42.942 49.5461 43.1319 49.7458C43.9701 49.9878 44.8471 49.9051 45.7189 49.8733C46.5353 49.8434 47.3518 49.8957 48.1672 49.931C48.4183 49.946 48.6677 49.8819 48.8776 49.7483V49.7483Z" fill="#333333"/>
<path d="M44.4864 46.379C44.4802 46.8285 44.4573 47.2767 44.4176 47.7235C45.0439 47.8664 45.6934 47.8893 46.3289 47.7908C46.2854 47.3525 46.2694 46.8944 46.2704 46.4527C45.6971 46.4577 45.0576 46.4288 44.4864 46.379Z" fill="#FDC0B1"/>
<path d="M43.9649 23.0238C44.192 23.0611 44.4155 22.9192 44.5521 22.7399C44.6887 22.5607 44.7627 22.346 44.8683 22.1488C44.9738 21.9516 45.127 21.7594 45.3479 21.6932C45.1678 21.0055 45.3132 20.2839 45.3996 19.5798C45.486 18.8756 45.4953 18.1112 45.0923 17.5176C44.8579 17.172 44.4994 16.9161 44.1092 16.7433C43.7191 16.5705 43.2974 16.4773 42.8758 16.4046C42.0402 16.2612 41.1166 16.6327 40.651 17.3159C40.4377 17.6199 40.2802 17.9567 40.1853 18.3119C40.0922 18.6545 40.0115 19.0091 40.0498 19.3577C40.1134 19.9458 40.472 20.63 40.8843 21.0677C41.7235 21.9616 42.7299 22.8246 43.9649 23.0238Z" fill="#FDC0B1"/>
<path d="M44.9221 20.2003C44.8993 20.3706 44.7529 20.4922 44.5951 20.4727C44.4373 20.4533 44.3271 20.2994 44.3498 20.1296C44.3726 19.9598 44.519 19.8378 44.6768 19.8572C44.8346 19.8766 44.9453 20.0305 44.9221 20.2003Z" fill="#3B3348"/>
<path d="M40.6883 20.2096C40.5809 21.0565 40.2417 21.8606 39.7052 22.5397C39.8765 22.9062 40.2195 23.1472 40.6128 23.2837C41.006 23.4201 41.4261 23.5157 41.7567 23.7608C42.0203 23.2006 42.3275 22.6604 42.6756 22.1448C42.0998 21.4217 41.4861 20.6977 40.6883 20.2096Z" fill="#FDC0B1"/>
<path d="M44.4714 29.5557L46.7387 30.1448L47.6358 30.3749C47.7401 30.396 47.84 30.4339 47.9313 30.4869C47.9765 30.5135 48.014 30.5506 48.0404 30.5948C48.0668 30.639 48.0812 30.6889 48.0823 30.7399C48.0735 30.9037 47.8893 31.0023 47.7248 31.0526C47.2131 31.209 46.6642 31.202 46.1271 31.1801C44.8452 31.1262 43.5687 30.9874 42.3067 30.7648C42.0785 30.7244 41.7044 30.5611 41.5544 30.3928C41.3831 30.2006 41.5218 30.0173 41.6371 29.7907C41.7521 29.5849 41.9054 29.4011 42.0893 29.2484C42.2492 29.111 42.4096 29.1309 42.6155 29.1568C43.2452 29.238 43.8588 29.3978 44.4714 29.5557Z" fill="#F04646"/>
<path d="M47.7289 30.3496C48.3304 30.261 48.9407 30.241 49.547 30.2898C49.6495 30.2899 49.7499 30.3171 49.8373 30.3685C49.9247 30.4292 49.976 30.5323 50.0189 30.6334C50.1262 30.8876 50.1999 31.1538 50.2383 31.4257C50.2636 31.6005 50.0453 31.7195 49.8808 31.7534C49.7162 31.7872 49.547 31.7534 49.3841 31.714C48.8786 31.596 48.3803 31.4461 47.8872 31.2808C47.732 31.231 47.5685 31.1648 47.4945 31.0154C47.4696 30.9579 47.4571 30.8962 47.4579 30.8339C47.4587 30.7716 47.4727 30.7102 47.4992 30.6533C47.5483 30.5393 47.612 30.367 47.7289 30.3496Z" fill="#FDC0B1"/>
<path d="M36.4229 31.8877C36.0276 32.5873 35.7911 33.3816 35.8191 34.1784C35.847 34.9752 36.1517 35.7749 36.725 36.3521C37.5648 37.1986 38.8401 37.473 40.0457 37.6224C42.1209 37.8807 44.222 37.883 46.2979 37.6294C46.5705 37.5955 46.867 37.472 47.1159 37.3605C47.3647 37.2489 47.5862 37.0517 47.6591 36.7963C47.7383 36.5174 47.6281 36.2131 47.4398 35.9876C47.2514 35.762 46.9943 35.6016 46.7377 35.4512C44.83 34.3377 42.8981 33.8298 40.4958 33.1222C39.1532 32.7248 37.7484 32.1969 36.4229 31.8877Z" fill="#4C4C4C"/>
<path d="M39.802 22.4114C40.3758 22.9168 41.1069 23.3894 41.8716 23.5134C41.8514 24.9625 41.9658 26.3265 41.7402 27.7597C41.6191 28.5296 41.2704 29.2636 41.1871 30.038C41.0546 31.267 41.2119 32.1484 40.6179 33.2435C39 33.0796 37.4008 33.1673 36.0224 32.3357C36.6221 30.6839 37.1307 28.7064 37.5043 26.9938C37.8778 25.2813 38.3512 23.4656 39.802 22.4114Z" fill="#FF5D5B"/>
<path d="M46.7625 35.4682C47.2799 35.7087 47.7621 35.9741 47.9323 36.4836C48.1025 36.993 48.0322 37.5472 47.9132 38.0701C47.7062 38.9884 47.3534 39.8703 47.0983 40.7771C46.5695 42.653 46.4458 44.636 46.3362 46.5781C45.7065 46.7967 44.9614 46.8012 44.3644 46.5099C44.4104 44.9029 44.1015 43.3049 44.0829 41.6969C44.0643 40.0889 44.383 38.3868 45.4902 37.1832C45.9336 36.7002 46.3786 35.995 46.7625 35.4682Z" fill="#4C4C4C"/>
<path d="M49.9051 49.7483C49.9403 49.4829 49.7463 49.2324 49.5093 49.0924C49.2723 48.9525 48.995 48.8932 48.7332 48.8081C47.8759 48.5247 47.1541 47.9316 46.5193 47.3092C46.3604 47.2878 46.2311 47.4202 46.109 47.5203C45.8643 47.7199 45.5498 47.8223 45.2294 47.8067C44.9133 47.7902 44.6789 47.5945 44.3881 47.4312C44.3074 47.6802 44.1734 47.9526 44.0927 48.2011C44.0084 48.4595 43.924 48.7214 43.9121 48.9913C43.9002 49.2613 43.9701 49.5461 44.16 49.7458C44.9981 49.9878 45.8746 49.9051 46.7469 49.8733C47.5629 49.8434 48.3793 49.8957 49.1952 49.931C49.4462 49.9458 49.6953 49.8817 49.9051 49.7483V49.7483Z" fill="#4C4C4C"/>
<path d="M42.5095 22.3141C42.5306 22.4596 42.5707 22.602 42.629 22.7378C42.6881 22.8745 42.7991 22.9844 42.9394 23.0451C43.0781 23.0979 43.2762 23.0511 43.3057 22.9106C43.3125 22.8503 43.3032 22.7893 43.2788 22.7334C43.1316 22.2882 43.0446 21.8265 43.0201 21.3599C43.0193 21.2013 43.002 21.0431 42.9684 20.8878C42.9167 20.6847 42.7733 20.4805 42.5426 20.4491C42.3527 20.4232 42.2114 20.5144 42.2063 20.7021C42.1995 20.9546 42.3046 21.2449 42.3517 21.4934C42.4048 21.7669 42.4574 22.0405 42.5095 22.3141Z" fill="#34537C"/>
<path d="M48.7674 32.0686C48.6289 32.0275 48.4999 31.9611 48.3876 31.8729C48.0189 31.608 47.7094 31.2744 47.4775 30.8919C47.4648 30.8751 47.4581 30.8549 47.4584 30.8341C47.4636 30.7918 47.5189 30.7769 47.5619 30.7734C47.9668 30.7441 48.3714 30.8352 48.7208 31.0343C48.9795 31.1792 49.4514 31.4825 49.3163 31.8171C49.2274 32.0412 49.0054 32.1289 48.7674 32.0686Z" fill="#FDC0B1"/>
<path d="M39.4414 23.4719C39.1206 23.6109 38.9581 23.9395 38.9545 24.2498C38.9509 24.56 39.0771 24.8593 39.2018 25.1506L41.2931 30.0308C41.4054 30.2589 41.6098 30.4945 41.8886 30.5418C42.0118 30.5666 42.1397 30.5562 42.2568 30.512C42.3739 30.4678 42.4751 30.3916 42.5478 30.2928C42.7108 30.0936 42.7589 29.8346 42.7366 29.5901C42.7144 29.3456 42.628 29.1091 42.5416 28.875C42.0076 27.4249 41.473 25.9749 40.9377 24.5252C40.8399 24.2607 40.7379 23.9883 40.5331 23.7742C40.3282 23.5601 39.729 23.3479 39.4414 23.4719Z" fill="#F04646"/>
<path d="M45.1586 19.4511C45.3097 19.4745 45.4794 19.5009 45.602 19.4127C45.7469 19.3087 45.7484 19.102 45.7174 18.9302C45.5622 18.0672 44.9377 17.3093 44.1274 16.9109C43.3172 16.5125 42.344 16.4627 41.4706 16.7067C41.0867 16.8153 40.7095 16.9856 40.4358 17.2674C40.0736 17.6414 39.9339 18.1723 39.9184 18.6837C39.9039 19.2179 40.0098 19.7488 40.2288 20.2399C40.3059 20.4127 40.4156 20.5959 40.6029 20.6507C40.6708 20.666 40.7411 20.6679 40.8098 20.6563C40.8784 20.6448 40.9439 20.62 41.0024 20.5835C41.1189 20.5108 41.2279 20.4274 41.3278 20.3345C41.7126 20.0109 42.1655 19.771 42.6554 19.6313C42.9033 19.5601 43.1542 19.5482 43.4046 19.4969C43.6475 19.4391 43.8953 19.4027 44.145 19.3883C44.4842 19.3773 44.8237 19.3983 45.1586 19.4511Z" fill="#88554A"/>
<path d="M45.6144 17.7107C45.7065 18.0055 45.772 18.3074 45.8099 18.6131C45.8236 18.7307 45.7903 18.8489 45.7168 18.9437C45.6433 19.0386 45.5351 19.103 45.4141 19.124C45.1296 19.1738 43.9603 19.1893 43.7823 19.4153C43.5153 19.7545 43.4154 19.876 43.3482 20.2968C43.3135 20.5119 43.2804 20.74 43.136 20.9073C42.9156 21.1613 42.5245 21.1832 42.1815 21.1727C41.142 21.1408 40.9811 20.9934 39.9763 20.735C39.5132 19.9686 39.3653 19.0085 39.6203 18.1564C39.8754 17.3044 40.5475 16.5669 41.409 16.2551C41.8964 16.0794 42.4262 16.0385 42.9467 16.056C43.4672 16.0734 43.9861 16.1481 44.4513 16.3647C44.9919 16.6162 45.3909 17.0853 45.6144 17.7093V17.7107Z" fill="#FF5D5B"/>
<path d="M43.9266 19.3293C45.2992 19.2077 46.125 19.1301 46.9611 19.0056C46.9696 18.9466 46.9696 18.8868 46.9611 18.8278C46.1162 18.7197 45.2625 18.6112 44.4129 18.6829C44.2909 18.6886 44.1705 18.7116 44.0554 18.7511C43.9995 18.7702 43.948 18.7999 43.9041 18.8383C43.8603 18.8768 43.8248 18.9233 43.7998 18.9752C43.7553 19.0788 43.8272 19.265 43.9266 19.3293Z" fill="#FF9B30"/>
<path d="M39.5956 22.5257C39.6438 22.3893 39.7176 22.2625 39.8134 22.1517C39.8475 22.1049 39.8974 22.0707 39.9546 22.0551C40.0077 22.0514 40.0608 22.0632 40.1067 22.089C40.5936 22.3116 40.9863 22.707 41.4835 22.9082C41.6429 22.9729 41.8219 23.0237 41.9264 23.1572C42.0092 23.2637 42.0299 23.4062 42.0299 23.5381C42.0299 23.6701 42.0195 23.8075 42.0464 23.9365C42.0348 23.9629 42.0148 23.9852 41.9892 24C41.9637 24.0149 41.9339 24.0216 41.9042 24.0192C41.8441 24.0049 41.7873 23.9797 41.737 23.945C41.3645 23.7269 40.9522 23.5834 40.5667 23.3877C40.1812 23.192 39.7968 22.9062 39.5956 22.5257Z" fill="#F04646"/>
</g>
<defs>
<filter id="filter0_di_101_67" x="0" y="0" width="295" height="84" filterUnits="userSpaceOnUse" color-interpolation-filters="sRGB">
<feFlood flood-opacity="0" result="BackgroundImageFix"/>
<feColorMatrix in="SourceAlpha" type="matrix" values="0 0 0 0 0 0 0 0 0 0 0 0 0 0 0 0 0 0 127 0" result="hardAlpha"/>
<feMorphology radius="2" operator="dilate" in="SourceAlpha" result="effect1_dropShadow_101_67"/>
<feOffset dx="3" dy="5"/>
<feGaussianBlur stdDeviation="3.5"/>
<feComposite in2="hardAlpha" operator="out"/>
<feColorMatrix type="matrix" values="0 0 0 0 0 0 0 0 0 0 0 0 0 0 0 0 0 0 0.2 0"/>
<feBlend mode="normal" in2="BackgroundImageFix" result="effect1_dropShadow_101_67"/>
<feBlend mode="normal" in="SourceGraphic" in2="effect1_dropShadow_101_67" result="shape"/>
<feColorMatrix in="SourceAlpha" type="matrix" values="0 0 0 0 0 0 0 0 0 0 0 0 0 0 0 0 0 0 127 0" result="hardAlpha"/>
<feOffset dy="4"/>
<feGaussianBlur stdDeviation="2.5"/>
<feComposite in2="hardAlpha" operator="arithmetic" k2="-1" k3="1"/>
<feColorMatrix type="matrix" values="0 0 0 0 0.491667 0 0 0 0 0.163889 0 0 0 0 0.163889 0 0 0 0.1 0"/>
<feBlend mode="normal" in2="shape" result="effect2_innerShadow_101_67"/>
</filter>
<filter id="filter1_d_101_67" x="14.3334" y="16.0523" width="51.4207" height="44.8268" filterUnits="userSpaceOnUse" color-interpolation-filters="sRGB">
<feFlood flood-opacity="0" result="BackgroundImageFix"/>
<feColorMatrix in="SourceAlpha" type="matrix" values="0 0 0 0 0 0 0 0 0 0 0 0 0 0 0 0 0 0 127 0" result="hardAlpha"/>
<feOffset dy="2"/>
<feGaussianBlur stdDeviation="1"/>
<feComposite in2="hardAlpha" operator="out"/>
<feColorMatrix type="matrix" values="0 0 0 0 0 0 0 0 0 0 0 0 0 0 0 0 0 0 0.25 0"/>
<feBlend mode="normal" in2="BackgroundImageFix" result="effect1_dropShadow_101_67"/>
<feBlend mode="normal" in="SourceGraphic" in2="effect1_dropShadow_101_67" result="shape"/>
</filter>
</defs>
</svg>
